<svg xmlns="http://www.w3.org/2000/svg" width="82.69" height="82.723"><g data-name="Сгруппировать 87"><g data-name="Сгруппировать 86" fill="#161615"><path data-name="Контур 66" d="M47.256 31.614a1.924 1.924 0 001.922-1.921V24.62a1.924 1.924 0 00-1.922-1.922H35.433a1.924 1.924 0 00-1.921 1.922v5.073a1.924 1.924 0 001.921 1.921zm-11.324-6.495h10.825v4.075H35.932z"/><path data-name="Контур 67" d="M52.981 57.794a1.924 1.924 0 00-1.922 1.921v5.074a1.924 1.924 0 001.922 1.921h11.823a1.924 1.924 0 001.921-1.921v-5.074a1.924 1.924 0 00-1.921-1.921zm11.324 6.5H53.48v-4.076h10.825z"/><path data-name="Контур 68" d="M29.709 57.794H17.886a1.924 1.924 0 00-1.922 1.921v5.074a1.924 1.924 0 001.922 1.921h11.823a1.924 1.924 0 001.921-1.921v-5.074a1.924 1.924 0 00-1.921-1.921zm-.5 6.5H18.384v-4.076h10.825z"/><path data-name="Контур 69" d="M80.884 70.191H77.65V65.5a1.211 1.211 0 00-1.21-1.211 1.211 1.211 0 00-1.211 1.211v4.69H42.555V37.516h10.937v8.109a1.938 1.938 0 00.932 1.663 1.937 1.937 0 001.905.071l2.563-1.314 2.563 1.314a1.956 1.956 0 00.89.216 1.938 1.938 0 001.015-.288 1.932 1.932 0 00.932-1.662v-8.109h10.906a.031.031 0 01.031.032v22.454a1.211 1.211 0 001.211 1.21 1.21 1.21 0 001.21-1.21V37.548a2.456 2.456 0 00-2.452-2.453h-15.1V2.451A2.453 2.453 0 0057.647 0H25.035a2.455 2.455 0 00-2.452 2.452V8.52a1.21 1.21 0 001.21 1.21 1.21 1.21 0 001.21-1.21V2.452a.033.033 0 01.032-.032h10.906v8.11a1.934 1.934 0 00.932 1.662 1.947 1.947 0 001.015.288 1.946 1.946 0 00.89-.217l2.563-1.314 2.562 1.314a1.935 1.935 0 001.905-.071 1.935 1.935 0 00.933-1.663V2.42h10.906a.031.031 0 01.031.031v32.644H25.003V14.017a1.21 1.21 0 00-1.21-1.21 1.21 1.21 0 00-1.21 1.21v21.078H7.488a2.456 2.456 0 00-2.453 2.453v32.643H1.802a1.808 1.808 0 00-1.806 1.806v3.514a1.808 1.808 0 001.806 1.8h2.846v3.254a2.156 2.156 0 002.153 2.153h3.521a2.156 2.156 0 002.153-2.153v-3.254h57.732v3.254a2.156 2.156 0 002.153 2.153h3.521a2.155 2.155 0 002.152-2.153v-3.254h2.847a1.808 1.808 0 001.806-1.8v-3.514a1.809 1.809 0 00-1.806-1.806zM44.324 9.757l-2.091-1.072a1.953 1.953 0 00-1.777 0l-2.091 1.072V2.42h5.959zm11.589 27.759h5.959v7.337l-2.091-1.072a1.95 1.95 0 00-1.778 0l-2.09 1.072zm-35.095 0h5.959v7.337l-2.091-1.072a1.95 1.95 0 00-1.778 0l-2.091 1.072v-7.337zm-13.358.032a.032.032 0 01.032-.032h10.905v8.109a1.935 1.935 0 00.932 1.662 1.935 1.935 0 001.905.072l2.563-1.314 2.563 1.314a1.953 1.953 0 00.89.216 1.942 1.942 0 001.015-.288 1.934 1.934 0 00.932-1.662v-8.109h10.937V70.19H7.46zm2.6 42.754H7.074v-2.986h2.986zm65.559 0h-2.986v-2.986h2.986zm4.652-5.406H2.422v-2.284h77.849z"/></g></g></svg>