<svg xmlns="http://www.w3.org/2000/svg" width="84.083" height="84.15"><path data-name="Контур 61" d="M82.816 9.805a33.822 33.822 0 00-2.933-6.676 1.257 1.257 0 00-1.33-.561 33.787 33.787 0 00-6.831 2.548c-4.846 2.419-8.23 5.649-9.79 9.338a18.089 18.089 0 00-.563 10.978 34.982 34.982 0 00-6.573-5.72 50.976 50.976 0 00-5.713-8.757 1.233 1.233 0 00-1.913 1.555 49.333 49.333 0 014.549 6.691L40.49 17.012 29.821 2.46a17.352 17.352 0 013.11.317 21.284 21.284 0 019.629 4.964 1.233 1.233 0 001.6-1.877A23.7 23.7 0 0033.405.358c-5.648-1.106-12.235.345-19.052 4.2a49.247 49.247 0 00-8.62 6.157 1.3 1.3 0 00-.146 1.693 50.287 50.287 0 005.529 8.679 38.588 38.588 0 005.827 5.99q-.861.721-1.674 1.514a28.408 28.408 0 00-6.552 9.8 28.446 28.446 0 00-2.012 10.253 28.316 28.316 0 004.892 16.281 28.459 28.459 0 0012.892 10.441 1.233 1.233 0 00.927-2.284 26.046 26.046 0 01-5.332-2.933 13.894 13.894 0 00-2.093-9.723c-.391-.609.777-3 1.475-4.427a23.078 23.078 0 001.81-4.425 3.373 3.373 0 00-1.2-3.7 9.1 9.1 0 00-2.931-1.3 6.317 6.317 0 01-1.61-.63 16.408 16.408 0 01-2.087-3.4 21.107 21.107 0 00-2.253-3.7 26.207 26.207 0 017.782-10.253 21.564 21.564 0 0010.387 3.86c-4.356 3.375-5.766 7.686-3.751 11.827 2.352 4.835 7.194 4.062 11.466 3.382.739-.118 1.5-.24 2.236-.332.275-.034.357.041.413.09.935.832.907 4.806.887 7.708-.027 4.013-.053 7.8 1.443 9.752a3.762 3.762 0 003.1 1.5 6.224 6.224 0 002.434-.55c3.718-1.592 7.583-6.384 6.993-10.176-.515-3.315-.856-5.505-.052-7.27.743-1.634 2.54-3.147 6.078-5.077a25.961 25.961 0 01.615 5.93 25.849 25.849 0 01-7.823 18.318 26.173 26.173 0 01-21.08 7.265 1.234 1.234 0 00-.27 2.451 28.655 28.655 0 0023.074-7.953 28.3 28.3 0 008.565-20.055 28.5 28.5 0 00-12.95-24.181 48.021 48.021 0 003.515-2.748 32.821 32.821 0 017.543 7.56 32.506 32.506 0 015.686 24.39 32.757 32.757 0 01-37.618 26.951A32.507 32.507 0 018.6 68.008a32.5 32.5 0 01-5.686-24.389 1.234 1.234 0 00-2.432-.4 34.956 34.956 0 006.114 26.228 34.962 34.962 0 0022.87 14.221 35.672 35.672 0 005.809.479 34.924 34.924 0 0020.42-6.593 34.949 34.949 0 0014.223-22.869 34.938 34.938 0 00-2.443-19.776 35.493 35.493 0 005.684-2.239c4.844-2.419 8.229-5.649 9.788-9.338s1.514-8.365-.131-13.527zm-71.549 33.9a15.368 15.368 0 002.686 4.137 7.066 7.066 0 002.468 1.1c2.409.741 2.689 1.1 2.458 2.057a21.563 21.563 0 01-1.629 3.923c-1.273 2.6-2.475 5.064-1.336 6.841a11.73 11.73 0 011.866 6.541 26.273 26.273 0 01-7.6-26.583c.367.615.748 1.337 1.089 1.984zM70.91 19.48l-3.5-8.49a23.074 23.074 0 015.367-3.639 32.819 32.819 0 013.9-1.64zm8.032-12.813a32.981 32.981 0 011.542 3.941 23.559 23.559 0 011.117 5.943l-8.211 3.387zm-14.739 8.751a11.793 11.793 0 011.376-2.393l3.989 9.664-3.579 8.558a32.691 32.691 0 01-1.6-4.06c-1.004-3.189-1.854-7.819-.184-11.771zm7.9 15.026a32.513 32.513 0 01-3.773 1.6l3.714-8.879 9.454-3.9a11.885 11.885 0 01-.825 3.116c-1.669 3.946-5.582 6.563-8.57 8.061zm-44.452-.7a17.39 17.39 0 01-1.289-.308l13.644-10 11.234 2.19c-4.093 3.219-14.052 9.979-23.589 8.115zm-12.469-7.713a47.987 47.987 0 01-6.284-8.661l14.3 2.788zm2.525-16.448l5.982 8.159-14.389-2.8a48.606 48.606 0 018.407-5.362zm9.548 8.855l-7.251-9.892a27.758 27.758 0 016.89-1.907l10.032 13.683zm-.767 2.362l10.224 1.992-13.122 9.619a25.535 25.535 0 01-6.65-4.612zm33.45 24.073c-4.444 2.367-6.62 4.227-7.652 6.5-1.109 2.436-.7 5.051-.141 8.67.333 2.134-2.2 6.107-5.527 7.531-1.229.526-2.1.464-2.6-.186-.979-1.275-.952-5.133-.931-8.232.029-4.289.055-7.993-1.715-9.567a2.9 2.9 0 00-2.355-.694c-.775.1-1.561.222-2.321.343-4.531.722-7.383 1.011-8.86-2.026-2.393-4.919 2.452-8.562 4.646-9.9a7.868 7.868 0 001.246-.951 35.843 35.843 0 0014.779-5.759A26.168 26.168 0 0159.938 40.87z" fill="#161615"/></svg>