<svg xmlns="http://www.w3.org/2000/svg" width="84.323" height="63.367"><g data-name="Сгруппировать 85" fill="#161615"><path data-name="Контур 62" d="M30.197 53.098a1.233 1.233 0 00-1.233 1.233v6.493a1.233 1.233 0 001.233 1.233 1.233 1.233 0 001.232-1.233v-6.493a1.233 1.233 0 00-1.232-1.233z"/><path data-name="Контур 63" d="M54.061 53.098a1.233 1.233 0 00-1.233 1.233v6.493a1.233 1.233 0 001.233 1.233 1.233 1.233 0 001.233-1.233v-6.493a1.233 1.233 0 00-1.233-1.233z"/><path data-name="Контур 64" d="M78.017 48.794l-4.128-1.656v-1.055a8.177 8.177 0 002.15-1.728 7.31 7.31 0 006.727-2.831 7.317 7.317 0 00.931-7.476l-1.853-4.274a3.918 3.918 0 01-.286-1.006 11.661 11.661 0 00-3.907-7.154 11.665 11.665 0 00-7.637-2.849 11.665 11.665 0 00-7.637 2.849 11.667 11.667 0 00-3.908 7.154 3.887 3.887 0 01-.285 1.006l-1.853 4.274a7.317 7.317 0 00.931 7.476 7.3 7.3 0 005.828 2.889 7.6 7.6 0 00.889-.053 8.085 8.085 0 001.933 1.6v1.173l-4.128 1.656a8.375 8.375 0 00-.788.365 10.756 10.756 0 00-3.358-3.729l-5.377-3.7a2.265 2.265 0 00-.794-1.833l-2.185-1.854a2.289 2.289 0 00-.685-.4v-2.495a11.058 11.058 0 004.427-7.151h.131a4.268 4.268 0 004.263-4.263 4.238 4.238 0 00-.932-2.656l.882-6.265a8.36 8.36 0 00-7.029-9.407l-.176-.026A10.877 10.877 0 0043.806.562L43.483.47a12.564 12.564 0 00-10.429 1.651 1.233 1.233 0 00-.34 1.71 1.233 1.233 0 001.711.339 10.1 10.1 0 018.386-1.327l.322.091a8.444 8.444 0 015.185 4.174 8.449 8.449 0 01.995 4.525l-.836-.718a2.087 2.087 0 00-2.671-.042l-1.1.886h-6.258a7.372 7.372 0 00-7.364 7.365v.342a4.264 4.264 0 00-.951.111 14.387 14.387 0 011.094-11.961 1.233 1.233 0 00-.449-1.685 1.232 1.232 0 00-1.684.449 16.862 16.862 0 00-1.123 14.457 4.241 4.241 0 00-1.134 2.892 4.268 4.268 0 004.263 4.263h.131a11.058 11.058 0 004.427 7.151v2.495a2.277 2.277 0 00-.685.4l-2.185 1.854a2.262 2.262 0 00-.794 1.833l-5.377 3.7a10.749 10.749 0 00-2.754 2.746 9.891 9.891 0 00-1.485-.669l-3.65-1.293v-.972a7.737 7.737 0 003.568-5.3h.552a3.927 3.927 0 003.923-3.923 3.9 3.9 0 00-.942-2.546l.22-2.6a10.605 10.605 0 00-4.38-9.521 10.607 10.607 0 00-10.411-1.2L8.801 21.18a7.506 7.506 0 00-5.8 8.359l.55 3.918a3.907 3.907 0 00-.953 2.559 3.927 3.927 0 003.923 3.923h.551a7.733 7.733 0 003.214 5.068v1.2L6.635 47.5a10.093 10.093 0 00-1.5.674 1.234 1.234 0 00-.483 1.676 1.232 1.232 0 001.08.636 1.226 1.226 0 00.6-.154 7.581 7.581 0 011.126-.508l3.155-1.117a4.229 4.229 0 003.9 2.594 4.231 4.231 0 003.9-2.594l3.154 1.117a7.519 7.519 0 011.147.52 10.764 10.764 0 00-.752 3.952v7.314a1.232 1.232 0 001.233 1.233 1.232 1.232 0 001.233-1.233v-7.305a8.3 8.3 0 013.6-6.842l5.135-3.531 2.1 2.814a2.368 2.368 0 001.894.946 2.324 2.324 0 00.683-.1l3.062-.932v15.478a1.233 1.233 0 001.233 1.233 1.233 1.233 0 001.233-1.233V46.66l3.063.932a2.324 2.324 0 00.683.1 2.366 2.366 0 001.893-.946l2.1-2.814 5.135 3.531a8.3 8.3 0 013.6 6.842v7.314a1.232 1.232 0 001.233 1.233 1.232 1.232 0 001.232-1.233v-7.314a10.765 10.765 0 00-.381-2.839 5.833 5.833 0 01.778-.381l3.58-1.437a4 4 0 003.619 2.315 3.994 3.994 0 003.619-2.315l3.58 1.437a5.907 5.907 0 013.726 5.509v2.087a1.233 1.233 0 001.233 1.233 1.233 1.233 0 001.233-1.233v-2.087a8.363 8.363 0 00-5.274-7.8zM29.306 23.736a1.8 1.8 0 011.781-1.8v3.593a1.8 1.8 0 01-1.781-1.793zm-6.454 13.739h-.445v-2.914h.445a1.459 1.459 0 011.457 1.457 1.459 1.459 0 01-1.457 1.457zm-17.79-1.457a1.459 1.459 0 011.457-1.457h.445v2.914h-.445a1.459 1.459 0 01-1.457-1.457zm3.4-7.723a7.811 7.811 0 00-1.454 3.8h-.489a3.922 3.922 0 00-.663.057l-.414-2.954a5.036 5.036 0 013.978-5.627 1.252 1.252 0 00.233-.071l2.565-1.079a8.16 8.16 0 018.008.921 8.159 8.159 0 013.37 7.32l-.126 1.482a3.935 3.935 0 00-.618-.049h-.456a2.078 2.078 0 00-2.065-1.864h-3.044a10.059 10.059 0 01-6.045-2.033l-.349-.265a1.726 1.726 0 00-1.292-.33 1.727 1.727 0 00-1.139.692zm2 1.446zm-1.029 3.175a5.372 5.372 0 01.627-2.53 12.542 12.542 0 007.23 2.311h2.654v5.973a5.261 5.261 0 01-5.255 5.255 5.262 5.262 0 01-5.256-5.255zm5.078 15.927a1.761 1.761 0 01-1.758-1.758v-.94a7.734 7.734 0 001.936.246 7.773 7.773 0 001.58-.163v.857a1.761 1.761 0 01-1.761 1.758zm38.663-23.31V21.94a1.8 1.8 0 011.781 1.8 1.8 1.8 0 01-1.784 1.793zm1.754-11.061l-.722 5.132a4.237 4.237 0 00-1.033-.13v-.1a9.6 9.6 0 00-1.728-5.5 10.847 10.847 0 00-.034-5.625 5.891 5.891 0 013.513 6.223zM33.556 26.209v-7.078a4.9 4.9 0 014.9-4.9h6.694a1.23 1.23 0 00.774-.273l1.189-.961 1.1.95a7.146 7.146 0 012.491 5.426v6.835a8.586 8.586 0 01-8.576 8.576 8.585 8.585 0 01-8.576-8.576zm8.576 11.042a10.979 10.979 0 004-.754v1.58l-4 1.962-4-1.962v-1.58a10.979 10.979 0 003.992.754zm-4.942 7.956l-2.656-3.551 1.939-1.645 4.426 2.17v1.9zm9.884 0l-3.709-1.129v-1.9l4.425-2.17 1.94 1.645zm12.143-5.189a4.883 4.883 0 01-.621-4.988l1.853-4.275a6.362 6.362 0 00.464-1.636 9.245 9.245 0 019.1-7.888 9.245 9.245 0 019.1 7.888 6.422 6.422 0 00.463 1.636l1.854 4.275a4.883 4.883 0 01-.621 4.988 4.881 4.881 0 01-3.283 1.89 7.942 7.942 0 00.5-2.192 1.233 1.233 0 00-1.127-1.33 1.235 1.235 0 00-1.331 1.127 5.609 5.609 0 01-5.561 5.114 5.589 5.589 0 01-5.583-5.582V33.13a6.808 6.808 0 011.1-3.7 9.647 9.647 0 005.571 1.968l4.5.118v2.84a1.233 1.233 0 001.232 1.233 1.233 1.233 0 001.233-1.233v-3.174a2.112 2.112 0 00-2.067-2.122l-4.831-.127a7.159 7.159 0 01-4.308-1.595l-.319-.259a1.786 1.786 0 00-1.329-.394 1.787 1.787 0 00-1.216.666 9.277 9.277 0 00-2.027 5.776v5.914a8.015 8.015 0 00.527 2.86 4.875 4.875 0 01-3.278-1.887zm10.686 9.477a1.524 1.524 0 01-1.523-1.523v-1.047a8.042 8.042 0 001.637.168 7.916 7.916 0 001.409-.128v1.007a1.524 1.524 0 01-1.526 1.523z"/><path data-name="Контур 65" d="M2.643 51.984a1.232 1.232 0 00-1.647.572 9.871 9.871 0 00-1 4.338v3.93a1.233 1.233 0 001.233 1.233 1.233 1.233 0 001.233-1.233v-3.93a7.429 7.429 0 01.749-3.263 1.232 1.232 0 00-.572-1.647z"/></g></svg>