<svg xmlns="http://www.w3.org/2000/svg" width="82.752" height="82.71"><g data-name="Сгруппировать 89"><g data-name="Сгруппировать 88" fill="#161615"><path data-name="Контур 70" d="M16.159 64.28a5.788 5.788 0 00-5.781 5.781 5.788 5.788 0 005.781 5.782 5.788 5.788 0 005.781-5.782 5.788 5.788 0 00-5.781-5.781zm0 9.14a3.362 3.362 0 01-3.359-3.358 3.363 3.363 0 013.359-3.359 3.363 3.363 0 013.359 3.359 3.362 3.362 0 01-3.359 3.358z"/><path data-name="Контур 71" d="M38.751 70.062a5.788 5.788 0 00-5.781-5.782 5.789 5.789 0 00-5.781 5.782 5.788 5.788 0 005.781 5.781 5.788 5.788 0 005.781-5.781zm-9.14 0a3.363 3.363 0 013.359-3.359 3.362 3.362 0 013.359 3.359 3.362 3.362 0 01-3.359 3.358 3.362 3.362 0 01-3.359-3.358z"/><path data-name="Контур 72" d="M55.563 70.062a5.789 5.789 0 00-5.781-5.782 5.788 5.788 0 00-5.781 5.782 5.788 5.788 0 005.781 5.781 5.788 5.788 0 005.781-5.781zm-9.14 0a3.363 3.363 0 013.359-3.359 3.362 3.362 0 013.358 3.359 3.361 3.361 0 01-3.358 3.358 3.362 3.362 0 01-3.359-3.358z"/><path data-name="Контур 73" d="M72.374 70.062a5.788 5.788 0 00-5.781-5.782 5.788 5.788 0 00-5.781 5.782 5.788 5.788 0 005.781 5.781 5.788 5.788 0 005.781-5.781zm-9.14 0a3.363 3.363 0 013.359-3.359 3.363 3.363 0 013.359 3.359 3.362 3.362 0 01-3.359 3.358 3.362 3.362 0 01-3.359-3.358z"/><path data-name="Контур 74" d="M70.1 57.413H58.611v-4.8a1.211 1.211 0 00-1.211-1.211 1.211 1.211 0 00-1.211 1.211v4.8H22.85V24.129a.055.055 0 01.054-.055h11.135v8.286a1.949 1.949 0 00.94 1.675 1.953 1.953 0 001.022.29 1.971 1.971 0 00.9-.218l2.622-1.344 2.621 1.344a1.953 1.953 0 001.92-.072 1.95 1.95 0 00.939-1.675v-8.286h11.135a.055.055 0 01.054.055v22.88a1.211 1.211 0 001.211 1.211 1.212 1.212 0 001.212-1.211v-3.087h2.245a2.65 2.65 0 002.647-2.648v-2.995a.22.22 0 01.137-.207 16.95 16.95 0 001.653-.684.219.219 0 01.244.049l2.117 2.118a2.651 2.651 0 003.744 0l4.131-4.131a2.65 2.65 0 000-3.744l-2.118-2.117a.218.218 0 01-.048-.245 17.428 17.428 0 00.684-1.652.217.217 0 01.206-.137h2.995a2.651 2.651 0 002.648-2.648V19.04a2.651 2.651 0 00-2.648-2.648h-2.995a.217.217 0 01-.206-.137 17.523 17.523 0 00-.684-1.652.217.217 0 01.048-.244l2.118-2.118a2.65 2.65 0 000-3.744l-4.131-4.13a2.651 2.651 0 00-3.744 0L65.54 6.484a.215.215 0 01-.244.049 17.044 17.044 0 00-1.652-.684.219.219 0 01-.137-.207V2.647A2.65 2.65 0 0060.859 0h-5.841a2.65 2.65 0 00-2.648 2.647v2.995a.219.219 0 01-.137.207 16.778 16.778 0 00-1.652.684.217.217 0 01-.244-.049l-2.118-2.118a2.651 2.651 0 00-3.744 0l-4.13 4.131a2.649 2.649 0 000 3.744l2.117 2.118a.215.215 0 01.049.244 16.819 16.819 0 00-.684 1.652.219.219 0 01-.207.137h-3a2.65 2.65 0 00-2.647 2.648v2.612H22.902a2.479 2.479 0 00-2.476 2.477v33.284h-7.784A12.663 12.663 0 00-.006 70.062 12.662 12.662 0 0012.642 82.71h5.535a1.212 1.212 0 001.212-1.212 1.212 1.212 0 00-1.212-1.211h-5.535A10.237 10.237 0 012.416 70.062a10.238 10.238 0 0110.226-10.226h57.456a10.238 10.238 0 0110.226 10.226A10.238 10.238 0 0170.1 80.285H23.8a1.212 1.212 0 00-1.212 1.211 1.212 1.212 0 001.212 1.212h46.3A12.662 12.662 0 0082.748 70.06 12.663 12.663 0 0070.1 57.411zM56.135 21.652h-7.169a8.987 8.987 0 018.97-8.669 8.987 8.987 0 018.977 8.978 8.987 8.987 0 01-8.3 8.949v-6.781a2.479 2.479 0 00-2.476-2.477zM38.397 19.04a.225.225 0 01.225-.225h3a2.643 2.643 0 002.491-1.752 14.58 14.58 0 01.586-1.417 2.642 2.642 0 00-.522-3l-2.118-2.117a.227.227 0 010-.319l4.131-4.13a.225.225 0 01.318 0l2.118 2.117a2.642 2.642 0 003 .522 14.709 14.709 0 011.416-.586 2.64 2.64 0 001.753-2.491V2.647a.225.225 0 01.225-.225h5.841a.226.226 0 01.226.225v2.995a2.641 2.641 0 001.751 2.49 14.776 14.776 0 011.417.587 2.642 2.642 0 003-.522l2.118-2.117a.223.223 0 01.318 0l4.131 4.13a.225.225 0 010 .318l-2.118 2.118a2.642 2.642 0 00-.522 3 14.421 14.421 0 01.586 1.416 2.642 2.642 0 002.491 1.752h2.995a.226.226 0 01.225.226v5.841a.225.225 0 01-.225.225h-2.995a2.642 2.642 0 00-2.491 1.752 14.438 14.438 0 01-.586 1.417 2.642 2.642 0 00.522 3l2.118 2.117a.226.226 0 010 .319l-4.131 4.13a.224.224 0 01-.318 0l-2.118-2.117a2.642 2.642 0 00-3-.522 14.593 14.593 0 01-1.417.586 2.642 2.642 0 00-1.752 2.491v2.994a.225.225 0 01-.225.226h-2.245v-8.161A11.413 11.413 0 0069.34 21.96a11.413 11.413 0 00-11.4-11.4 11.412 11.412 0 00-11.392 11.091h-8.146V19.04zm-1.936 5.034h6.117v7.534L40.415 30.5a1.967 1.967 0 00-1.791 0l-2.163 1.108z"/><path data-name="Контур 75" d="M33.5 44.785a1.938 1.938 0 00-1.936 1.936v5.17a1.938 1.938 0 001.936 1.936h12.047a1.938 1.938 0 001.936-1.936v-5.17a1.938 1.938 0 00-1.936-1.936zm11.561 6.619H33.986v-4.2h11.075z"/></g></g></svg>