<svg xmlns="http://www.w3.org/2000/svg" width="34.501" height="34.5"><g data-name="Сгруппировать 42" fill="#040506"><path data-name="Контур 13" d="M8.432 26.729a1.118 1.118 0 00-1.117 1.117 1.118 1.118 0 001.117 1.117h17.705a1.118 1.118 0 001.118-1.117 1.118 1.118 0 00-1.118-1.117z"/><path data-name="Контур 14" d="M26.889 21.26H7.544a1.118 1.118 0 00-1.118 1.117 1.118 1.118 0 001.118 1.117h19.345a1.118 1.118 0 001.118-1.117 1.118 1.118 0 00-1.118-1.117z"/><path data-name="Контур 15" d="M33.383 14.019h-12.5l-.058-.167a4.32 4.32 0 00-.123-.305 3.879 3.879 0 00-1.775-1.859 3.851 3.851 0 00-.46-.2l-.167-.059V1.119A1.119 1.119 0 0017.183.001a1.118 1.118 0 00-1.117 1.118v10.308l-.167.059a3.889 3.889 0 00-2.358 2.361l-.06.167H1.119a1.116 1.116 0 00-.845.387 1.114 1.114 0 00-.261.892l2.161 14.794a5.13 5.13 0 002.1 3.231A6.238 6.238 0 007.901 34.5h18.712a6.216 6.216 0 003.621-1.183 5.184 5.184 0 002.1-3.181 1.121 1.121 0 00-.888-1.308 1.117 1.117 0 00-1.308.887 3.575 3.575 0 01-3.528 2.551H7.898a3.564 3.564 0 01-3.522-2.518l-1.972-13.5h11.073l.059.167a3.869 3.869 0 003.639 2.572 3.87 3.87 0 003.64-2.572l.059-.167h11.213l-1.083 7.474a1.119 1.119 0 00.947 1.265 1.12 1.12 0 001.266-.946l1.267-8.75a1.119 1.119 0 00-.263-.891 1.115 1.115 0 00-.838-.381zm-16.2 2.734a1.619 1.619 0 01-1.617-1.617 1.62 1.62 0 011.617-1.617 1.619 1.619 0 011.617 1.617 1.618 1.618 0 01-1.618 1.612z"/></g></svg>