<svg xmlns="http://www.w3.org/2000/svg" width="73.21" height="64.178"><path data-name="Контур 27" d="M72.442 8.549a3.023 3.023 0 00-1.107-2.118 3.52 3.52 0 00-2.366-.789l-.334-2.545a3.574 3.574 0 00-3.532-3.1H35.547a3.571 3.571 0 00-3.53 3.1l-.335 2.543a3.331 3.331 0 00-3.318 2.17H8.106a3.569 3.569 0 00-3.53 3.1l-.336 2.542a3.439 3.439 0 00-2.329.76 3.09 3.09 0 00-1.144 2.144l-.761 8.575a1.1 1.1 0 00.264.888 2.514 2.514 0 001.868.42h.065L4.74 49.504h-.061l1.057 9.7a3.35 3.35 0 003.335 2.99h15.226a1.2 1.2 0 001.2-1.2 1.2 1.2 0 00-1.2-1.2H9.071a.961.961 0 01-.957-.858l-.256-2.338h.063l-.5-4.557h25.887l.845 7.753h-4.961a1.2 1.2 0 00-1.2 1.2 1.2 1.2 0 001.2 1.2h5.383a3.368 3.368 0 003.066 2h15.226a1.2 1.2 0 001.2-1.195 1.2 1.2 0 00-1.2-1.2H37.641a.963.963 0 01-.958-.859l-.752-6.895h28.782l-.752 6.895a.961.961 0 01-.956.859h-5.241a1.2 1.2 0 00-1.195 1.2 1.2 1.2 0 001.195 1.195h5.241a3.348 3.348 0 003.333-2.989l4.665-42.764h.065a2.528 2.528 0 001.868-.42 1.1 1.1 0 00.264-.888zm-59.991 6.115a1.2 1.2 0 00-1.2-1.2h-4.6l.3-2.25a1.172 1.172 0 011.159-1.018h19.956l-.3 3.314h-10.9a1.2 1.2 0 00-1.195 1.2 1.2 1.2 0 001.195 1.2h10.686l-.108 1.212a1.1 1.1 0 00.264.888 2.53 2.53 0 001.868.42h.064l.591 5.414H2.5l.645-7.275a.768.768 0 01.77-.7h7.336a1.2 1.2 0 001.2-1.205zm18.962 19.98l1.637 15H7.162l-1.636-15zm37.188-16.223l-.657 6.022H32.706l-.656-6.022zM4.608 26.23h25.888l.657 6.023H5.265zm63.075.605l-2.706 24.807h-29.3l-2.706-24.807zM39.892 6.855a1.2 1.2 0 00-1.195-1.2h-4.6l.3-2.25a1.172 1.172 0 011.159-1.017h29.555a1.174 1.174 0 011.161 1.017l.3 2.25H43.759a1.2 1.2 0 00-1.195 1.2 1.2 1.2 0 001.195 1.2h25.545a.767.767 0 01.768.7l.646 7.273H29.959l.645-7.274a.768.768 0 01.77-.7h7.336a1.2 1.2 0 001.179-1.198z" fill="#165425"/></svg>