<svg xmlns="http://www.w3.org/2000/svg" width="76.204" height="76.205"><g data-name="Сгруппировать 73"><g data-name="Сгруппировать 72"><g data-name="Сгруппировать 71" fill="#165425"><path data-name="Контур 41" d="M39.112 47.212a1.2 1.2 0 00-1.6-.571 19.052 19.052 0 01-3.044 1.138 1.205 1.205 0 00-.855.923l-1.273 6.364a1.353 1.353 0 01-1.323 1.085h-3.472a1.353 1.353 0 01-1.323-1.085l-1.273-6.364a1.2 1.2 0 00-.855-.923 19.122 19.122 0 01-4.226-1.75 1.2 1.2 0 00-1.258.047l-5.4 3.6a1.352 1.352 0 01-1.7-.169l-2.455-2.455a1.353 1.353 0 01-.169-1.7l3.6-5.4a1.205 1.205 0 00.047-1.258 19.1 19.1 0 01-1.751-4.226 1.2 1.2 0 00-.923-.855L3.495 32.34a1.354 1.354 0 01-1.085-1.323v-3.472a1.354 1.354 0 011.085-1.323l6.364-1.273a1.2 1.2 0 00.923-.855 19.1 19.1 0 011.751-4.226 1.205 1.205 0 00-.047-1.258l-3.6-5.4a1.353 1.353 0 01.169-1.7l2.455-2.456a1.354 1.354 0 011.7-.168l5.4 3.6a1.2 1.2 0 001.258.047 19.191 19.191 0 014.226-1.751 1.2 1.2 0 00.855-.922l1.273-6.364a1.353 1.353 0 011.323-1.085h3.472a1.352 1.352 0 011.323 1.085l1.273 6.364a1.2 1.2 0 00.856.922 19.159 19.159 0 014.225 1.751 1.2 1.2 0 001.258-.047l5.4-3.6a1.352 1.352 0 011.7.168l2.456 2.456a1.353 1.353 0 01.168 1.7l-3.6 5.4a1.2 1.2 0 00-.047 1.258 19.152 19.152 0 011.751 4.225 1.2 1.2 0 00.922.856l6.364 1.273a1.352 1.352 0 011.085 1.323v3.472a1.353 1.353 0 01-1.085 1.323l-6.364 1.272a1.2 1.2 0 00-.922.856 19.15 19.15 0 01-1.173 3.116 1.2 1.2 0 00.564 1.605 1.2 1.2 0 001.6-.564 21.536 21.536 0 001.108-2.795l5.654-1.131a3.766 3.766 0 003.019-3.682v-3.473a3.765 3.765 0 00-3.02-3.682l-5.654-1.131a21.511 21.511 0 00-1.4-3.389l3.2-4.8a3.767 3.767 0 00-.469-4.739l-2.456-2.455a3.765 3.765 0 00-4.738-.47l-4.8 3.2a21.51 21.51 0 00-3.389-1.4l-1.131-5.654A3.764 3.764 0 0031.013.005h-3.472a3.766 3.766 0 00-3.683 3.019l-1.131 5.654a21.45 21.45 0 00-3.388 1.405l-4.8-3.2a3.763 3.763 0 00-4.738.469L7.345 9.807a3.767 3.767 0 00-.469 4.739l3.2 4.8a21.616 21.616 0 00-1.4 3.389l-5.655 1.131a3.766 3.766 0 00-3.018 3.683v3.472a3.766 3.766 0 003.019 3.683l5.654 1.13a21.533 21.533 0 001.4 3.389l-3.2 4.8a3.766 3.766 0 00.469 4.738l2.456 2.456a3.766 3.766 0 004.738.469l4.8-3.2a21.521 21.521 0 003.389 1.4l1.131 5.655a3.764 3.764 0 003.682 3.018h3.472a3.765 3.765 0 003.683-3.019l1.131-5.654a21.594 21.594 0 002.713-1.068 1.2 1.2 0 00.572-1.606z"/><path data-name="Контур 42" d="M39.7 35.969a1.187 1.187 0 00.548.133 1.2 1.2 0 001.072-.654 13.571 13.571 0 001.483-6.164 13.54 13.54 0 00-13.525-13.525 13.449 13.449 0 00-9.441 3.84 1.2 1.2 0 00-.021 1.7 1.2 1.2 0 001.7.022 11.057 11.057 0 017.761-3.157 11.131 11.131 0 0111.118 11.119 10.988 10.988 0 01-1.218 5.066 1.2 1.2 0 00.523 1.62z"/><path data-name="Контур 43" d="M18.015 24.13a1.2 1.2 0 00-1.529.747 13.5 13.5 0 00-.733 4.4 13.541 13.541 0 0013.525 13.525 13.421 13.421 0 007.925-2.564 1.2 1.2 0 00.269-1.68 1.2 1.2 0 00-1.68-.269 11.038 11.038 0 01-6.514 2.106 11.132 11.132 0 01-11.119-11.119 11.114 11.114 0 01.6-3.619 1.2 1.2 0 00-.744-1.527z"/><path data-name="Контур 44" d="M73.888 52.587l-3.479-.7a14.52 14.52 0 00-.763-1.842l1.968-2.952a2.889 2.889 0 00-.359-3.635l-1.614-1.613a2.887 2.887 0 00-3.634-.36l-2.953 1.968a14.559 14.559 0 00-1.842-.763l-.7-3.479a2.89 2.89 0 00-2.825-2.316h-2.282a2.887 2.887 0 00-2.824 2.316l-.7 3.479a14.589 14.589 0 00-1.842.763l-2.952-1.968a2.888 2.888 0 00-3.635.36l-1.613 1.613a2.888 2.888 0 00-.36 3.635l1.968 2.952a14.7 14.7 0 00-.983 2.557 1.2 1.2 0 00.835 1.483 1.2 1.2 0 001.483-.835 12.1 12.1 0 011.113-2.685 1.2 1.2 0 00-.048-1.258l-2.366-3.549a.474.474 0 01.06-.6l1.613-1.614a.475.475 0 01.6-.059l3.549 2.366a1.2 1.2 0 001.258.047 12.157 12.157 0 012.686-1.112 1.2 1.2 0 00.855-.923l.836-4.182a.475.475 0 01.465-.381h2.282a.475.475 0 01.465.381l.836 4.182a1.2 1.2 0 00.856.923 12.1 12.1 0 012.685 1.113 1.2 1.2 0 001.258-.048l3.549-2.366a.474.474 0 01.6.06l1.614 1.613a.475.475 0 01.059.6l-2.366 3.549a1.2 1.2 0 00-.047 1.258 12.163 12.163 0 011.112 2.686 1.2 1.2 0 00.923.855l4.182.836a.475.475 0 01.381.465v2.282a.475.475 0 01-.381.465l-4.182.836a1.2 1.2 0 00-.923.856 12.1 12.1 0 01-1.113 2.685 1.2 1.2 0 00.048 1.258l2.366 3.549a.474.474 0 01-.06.6l-1.613 1.614a.475.475 0 01-.6.059l-3.549-2.366a1.2 1.2 0 00-1.258-.047 12.163 12.163 0 01-2.686 1.112 1.2 1.2 0 00-.855.923l-.836 4.182a.475.475 0 01-.465.381h-2.282a.475.475 0 01-.465-.381l-.836-4.182a1.2 1.2 0 00-.856-.923 12.107 12.107 0 01-2.685-1.113 1.2 1.2 0 00-1.258.048l-3.549 2.366a.475.475 0 01-.6-.06l-1.614-1.613a.475.475 0 01-.059-.6l2.366-3.549a1.2 1.2 0 00.047-1.258 12.151 12.151 0 01-1.112-2.686 1.2 1.2 0 00-.923-.855l-4.182-.836a.476.476 0 01-.381-.465v-2.282a.475.475 0 01.381-.465l.256-.051a1.2 1.2 0 00.944-1.416 1.2 1.2 0 00-1.416-.944l-.256.051a2.89 2.89 0 00-2.316 2.825v2.282a2.888 2.888 0 002.316 2.824l3.479.7a14.662 14.662 0 00.763 1.842l-1.968 2.952a2.888 2.888 0 00.36 3.635l1.613 1.613a2.888 2.888 0 003.635.36l2.952-1.968a14.494 14.494 0 001.842.763l.7 3.479a2.887 2.887 0 002.824 2.316h2.282a2.89 2.89 0 002.825-2.316l.7-3.479a14.668 14.668 0 001.842-.763l2.953 1.968a2.887 2.887 0 003.634-.36l1.614-1.613a2.891 2.891 0 00.36-3.635l-1.969-2.952a14.578 14.578 0 00.763-1.842l3.479-.7a2.888 2.888 0 002.316-2.824v-2.282a2.888 2.888 0 00-2.316-2.82z"/><path data-name="Контур 45" d="M56.552 52.22a4.336 4.336 0 014.332 4.332 1.2 1.2 0 001.2 1.2 1.2 1.2 0 001.2-1.2 6.745 6.745 0 00-6.738-6.738 6.746 6.746 0 00-6.738 6.738 6.746 6.746 0 006.738 6.738 6.678 6.678 0 004.117-1.4 1.2 1.2 0 00.216-1.688 1.2 1.2 0 00-1.688-.217 4.285 4.285 0 01-2.645.9 4.337 4.337 0 01-4.332-4.331 4.338 4.338 0 014.338-4.334z"/><path data-name="Контур 46" d="M36.609 29.279a7.34 7.34 0 00-7.331-7.331 7.34 7.34 0 00-7.331 7.331 7.339 7.339 0 007.331 7.33 7.339 7.339 0 007.331-7.33zm-12.255 0a4.931 4.931 0 014.924-4.925 4.931 4.931 0 014.924 4.925 4.93 4.93 0 01-4.924 4.924 4.93 4.93 0 01-4.926-4.924z"/></g></g></g></svg>