<svg xmlns="http://www.w3.org/2000/svg" width="62.201" height="62.16"><g data-name="Сгруппировать 70"><g data-name="Сгруппировать 69"><g data-name="Сгруппировать 68" fill="#fff"><path data-name="Контур 32" d="M56.131 0H20.194a6.078 6.078 0 00-6.07 6.071v21.45A17.511 17.511 0 000 44.678 17.5 17.5 0 0017.483 62.16h38.648a6.077 6.077 0 006.07-6.07V6.071A6.077 6.077 0 0056.131 0zm-53.7 44.678a15.071 15.071 0 0115.054-15.054 15.071 15.071 0 0115.054 15.054 15.071 15.071 0 01-15.054 15.054A15.071 15.071 0 012.429 44.678zm19.951-17.725v-2.914a1.215 1.215 0 011.214-1.214h2.913a1.215 1.215 0 011.214 1.214v2.914a1.215 1.215 0 01-1.214 1.214h-2.913a1.215 1.215 0 01-1.216-1.214zM59.775 56.09a3.646 3.646 0 01-3.642 3.642h-29.77a17.6 17.6 0 006.7-7.129v.573a3.647 3.647 0 003.643 3.643h2.913a3.646 3.646 0 003.642-3.643v-2.913a3.646 3.646 0 00-3.642-3.643h-2.913a3.623 3.623 0 00-1.919.548 17.452 17.452 0 00.178-2.49c0-.488-.021-.971-.06-1.45a3.615 3.615 0 001.8.479h2.913a3.646 3.646 0 003.642-3.643v-2.917a3.645 3.645 0 00-3.642-3.642h-2.913a3.647 3.647 0 00-3.625 3.28 17.611 17.611 0 00-5.481-6.362 3.648 3.648 0 002.55-3.474v-2.914a3.647 3.647 0 00-3.643-3.642h-2.913a3.647 3.647 0 00-3.643 3.642v2.914a3.636 3.636 0 00.026.421 17.541 17.541 0 00-2.494-.179c-.312 0-.623.009-.931.025V6.067a3.646 3.646 0 013.642-3.642H56.13a3.646 3.646 0 013.642 3.642zm-24.282-2.914v-2.913a1.215 1.215 0 011.218-1.216h2.913a1.215 1.215 0 011.214 1.214v2.913a1.215 1.215 0 01-1.214 1.214h-2.913a1.215 1.215 0 01-1.22-1.212zm0-13.112v-2.917a1.215 1.215 0 011.215-1.214h2.913a1.215 1.215 0 011.214 1.214v2.913a1.216 1.216 0 01-1.214 1.215h-2.913a1.216 1.216 0 01-1.217-1.211z"/><path data-name="Контур 33" d="M55.159 5.347H43.626a1.214 1.214 0 00-1.214 1.214 1.213 1.213 0 001.214 1.214h10.319v7.285H22.38V7.775h10.319a1.213 1.213 0 001.214-1.214 1.214 1.214 0 00-1.214-1.214H21.166a1.215 1.215 0 00-1.215 1.214v9.713a1.215 1.215 0 001.215 1.214h33.993a1.214 1.214 0 001.214-1.214V6.561a1.214 1.214 0 00-1.214-1.214z"/><path data-name="Контур 34" d="M39.619 20.397h-2.913a3.647 3.647 0 00-3.643 3.642v2.914a3.647 3.647 0 003.643 3.642h2.913a3.646 3.646 0 003.642-3.642v-2.914a3.646 3.646 0 00-3.642-3.642zm1.214 6.556a1.215 1.215 0 01-1.214 1.214h-2.913a1.216 1.216 0 01-1.215-1.214v-2.914a1.215 1.215 0 011.215-1.214h2.913a1.215 1.215 0 011.214 1.214z"/><path data-name="Контур 35" d="M52.731 20.397h-2.914a3.646 3.646 0 00-3.642 3.642v2.914a3.646 3.646 0 003.642 3.642h2.914a3.646 3.646 0 003.642-3.642v-2.914a3.646 3.646 0 00-3.642-3.642zm1.214 6.556a1.215 1.215 0 01-1.214 1.214h-2.914a1.216 1.216 0 01-1.214-1.214v-2.914a1.215 1.215 0 011.214-1.214h2.914a1.215 1.215 0 011.214 1.214z"/><path data-name="Контур 36" d="M52.731 33.509h-2.914a3.646 3.646 0 00-3.642 3.642v16.025a3.646 3.646 0 003.642 3.643h2.914a3.647 3.647 0 003.642-3.643V37.147a3.646 3.646 0 00-3.642-3.638zm1.214 19.667a1.215 1.215 0 01-1.214 1.214h-2.914a1.215 1.215 0 01-1.214-1.214V37.147a1.215 1.215 0 011.214-1.214h2.914a1.215 1.215 0 011.214 1.214z"/><path data-name="Контур 37" d="M38.162 7.77a1.227 1.227 0 00.859-.355 1.228 1.228 0 00.355-.859 1.222 1.222 0 00-.355-.858 1.224 1.224 0 00-.859-.356 1.223 1.223 0 00-.858.356 1.222 1.222 0 00-.356.858 1.223 1.223 0 00.356.859 1.226 1.226 0 00.858.355z"/><path data-name="Контур 38" d="M21.441 36.688a1.213 1.213 0 00-1.622.562l-6.68 13.755a1.214 1.214 0 00.561 1.623 1.212 1.212 0 00.53.122 1.213 1.213 0 001.093-.684l6.68-13.756a1.213 1.213 0 00-.562-1.622z"/><path data-name="Контур 39" d="M14.411 36.006a3.89 3.89 0 00-5.495 0 3.89 3.89 0 000 5.495 3.873 3.873 0 002.748 1.136 3.873 3.873 0 002.747-1.136 3.89 3.89 0 000-5.495zm-1.717 3.778a1.459 1.459 0 01-2.061 0 1.459 1.459 0 010-2.061 1.452 1.452 0 011.031-.426 1.452 1.452 0 011.03.426 1.458 1.458 0 01.003 2.061z"/><path data-name="Контур 40" d="M20.768 47.854a3.891 3.891 0 000 5.5 3.873 3.873 0 002.747 1.136 3.877 3.877 0 002.748-1.136 3.891 3.891 0 000-5.5 3.892 3.892 0 00-5.495 0zm3.778 3.779a1.461 1.461 0 01-2.062 0 1.461 1.461 0 010-2.062 1.456 1.456 0 011.031-.426 1.454 1.454 0 011.031.426 1.46 1.46 0 010 2.062z"/></g></g></g></svg>