<svg xmlns="http://www.w3.org/2000/svg" width="16.975" height="16.978"><g data-name="Сгруппировать 252" fill="#161615"><path data-name="Контур 440" d="M16.931 4.996a6.186 6.186 0 00-.394-2.06 4.151 4.151 0 00-.982-1.506 4.181 4.181 0 00-1.5-.978 6.22 6.22 0 00-2.059-.4c-.909-.043-1.2-.053-3.5-.053s-2.593.01-3.5.05a6.231 6.231 0 00-2.059.394 4.148 4.148 0 00-1.506.982 4.2 4.2 0 00-.979 1.5 6.2 6.2 0 00-.394 2.059c-.044.909-.053 1.2-.053 3.5s.009 2.594.049 3.5a6.215 6.215 0 00.4 2.06 4.2 4.2 0 00.982 1.506 4.168 4.168 0 001.5.978 6.231 6.231 0 002.06.4c.905.04 1.194.049 3.5.049s2.594-.009 3.5-.049a6.209 6.209 0 002.06-.4 4.341 4.341 0 002.484-2.484 6.231 6.231 0 00.4-2.06c.04-.9.05-1.194.05-3.5s-.019-2.588-.059-3.488zm-1.528 6.932a4.661 4.661 0 01-.292 1.575 2.819 2.819 0 01-1.612 1.612 4.668 4.668 0 01-1.576.292c-.9.04-1.164.05-3.429.05s-2.538-.01-3.43-.05a4.638 4.638 0 01-1.575-.292 2.611 2.611 0 01-.975-.633 2.645 2.645 0 01-.634-.975 4.693 4.693 0 01-.292-1.576c-.04-.9-.049-1.164-.049-3.429s.009-2.538.049-3.43a4.662 4.662 0 01.292-1.575 2.588 2.588 0 01.637-.976 2.648 2.648 0 01.975-.633 4.693 4.693 0 011.576-.292c.895-.04 1.164-.05 3.429-.05s2.537.01 3.43.05a4.668 4.668 0 011.575.292 2.624 2.624 0 01.975.633 2.641 2.641 0 01.634.976 4.679 4.679 0 01.292 1.575c.039.9.049 1.164.049 3.43s-.01 2.526-.049 3.422z"/><path data-name="Контур 441" d="M8.49 4.129a4.363 4.363 0 00-4.361 4.362 4.362 4.362 0 004.361 4.361 4.363 4.363 0 004.362-4.361A4.363 4.363 0 008.49 4.129zm0 7.191a2.83 2.83 0 01-2.829-2.829A2.83 2.83 0 018.49 5.662a2.83 2.83 0 012.83 2.829 2.83 2.83 0 01-2.83 2.829z"/><path data-name="Контур 442" d="M14.043 3.957a1.018 1.018 0 01-1.019 1.018 1.018 1.018 0 01-1.018-1.018 1.018 1.018 0 011.018-1.018 1.018 1.018 0 011.019 1.018z"/></g></svg>