<svg xmlns="http://www.w3.org/2000/svg" width="21.623" height="13.515"><path data-name="Контур 443" d="M10.942 13.515c3.128 0 2.013-1.981 2.254-2.55 0-.425-.007-.835.007-1.083a4.8 4.8 0 011.632 1.231c1.491 1.505 1.872 2.4 3.077 2.4h2.217a1.462 1.462 0 001.252-.536 1.4 1.4 0 00.16-1.295c-.5-1.554-3.38-4.236-3.559-4.519.027-.052.07-.121.093-.157.57-.753 2.743-4.009 3.063-5.312v-.007a1.3 1.3 0 00-.149-1.2 1.379 1.379 0 00-1.171-.491h-2.217a1.633 1.633 0 00-1.59 1.056 15.675 15.675 0 01-2.819 4.586c-.031-1.25-.01-2.2.006-2.913.033-1.383.137-2.729-1.3-2.729H8.413a1.224 1.224 0 00-.828 2.148c.814 1.022.293 1.591.468 4.425a16.584 16.584 0 01-2.764-5.251A1.621 1.621 0 003.652-.003H1.435A1.266 1.266 0 00-.001 1.308c0 1.843 4.08 12.2 10.942 12.2zM3.653 1.352c.2 0 .215 0 .36.412.883 2.6 2.861 6.441 4.306 6.441 1.086 0 1.086-1.113 1.086-1.532V3.338a3.187 3.187 0 00-.725-1.987h3.16c0 .015-.018 3.689.009 4.58 0 1.264 1 1.988 2.571.4a19.277 19.277 0 002.842-4.768c.068-.163.126-.218.339-.218h2.226v.009a26.4 26.4 0 01-2.874 4.9l-.03.045a1.347 1.347 0 00.04 1.761c.052.063.189.211.387.416.616.636 2.73 2.811 2.917 3.676-.124.02-.259.005-2.354.01-.446 0-.795-.667-2.126-2.009-1.2-1.164-1.973-1.64-2.68-1.64-1.373 0-1.273 1.115-1.26 2.462 0 1.462-.005 1 .005 1.091a2.694 2.694 0 01-.909.1c-5.717 0-9.44-9.074-9.583-10.808h2.294z" fill="#161615"/></svg>