<svg xmlns="http://www.w3.org/2000/svg" width="14.98" height="14.981"><g data-name="Сгруппировать 255" fill="#161615"><path data-name="Контур 444" d="M11.08 8.608c-.029-.014-1.121-.552-1.315-.622a.764.764 0 00-.254-.056.433.433 0 00-.368.218c-.109.162-.44.548-.542.664-.013.015-.031.033-.042.033s-.179-.07-.23-.092a5.75 5.75 0 01-2.183-1.939.124.124 0 01-.018-.043.361.361 0 01.064-.076c.059-.059.124-.136.186-.211l.088-.1a1.163 1.163 0 00.178-.282l.024-.049a.507.507 0 00-.015-.479c-.025-.052-.487-1.165-.536-1.282-.118-.282-.273-.413-.49-.413h-.084a2.626 2.626 0 00-.908.234 1.9 1.9 0 00-.7 1.617 3.485 3.485 0 00.755 1.919l.031.045a7.119 7.119 0 003.052 2.649 4.962 4.962 0 001.843.472 2.948 2.948 0 00.3-.018l.054-.005a1.943 1.943 0 001.351-.956 1.509 1.509 0 00.086-.995.694.694 0 00-.327-.233z"/><path data-name="Контур 445" d="M7.623-.003a7.338 7.338 0 00-7.358 7.3 7.252 7.252 0 001.008 3.693L.01 14.718a.193.193 0 00.045.2.194.194 0 00.139.059.2.2 0 00.059-.009l3.887-1.236a7.4 7.4 0 003.483.869 7.338 7.338 0 007.357-7.3A7.338 7.338 0 007.623-.003zm0 13.083a5.824 5.824 0 01-3.207-.956.2.2 0 00-.107-.031.2.2 0 00-.059.009l-1.947.619.628-1.855a.19.19 0 00-.027-.177A5.7 5.7 0 011.794 7.3a5.812 5.812 0 015.829-5.782A5.811 5.811 0 0113.45 7.3a5.81 5.81 0 01-5.827 5.783z"/></g></svg>