<svg xmlns="http://www.w3.org/2000/svg" width="16.975" height="16.978"><g data-name="Сгруппировать 192" fill="#fff"><path data-name="Контур 421" d="M16.932 4.991a6.2 6.2 0 00-.4-2.059 4.137 4.137 0 00-.981-1.506 4.209 4.209 0 00-1.5-.979 6.239 6.239 0 00-2.06-.394C11.083.01 10.791 0 8.491 0s-2.594.01-3.5.049a6.209 6.209 0 00-2.06.4 4.162 4.162 0 00-1.506.982 4.184 4.184 0 00-.978 1.5 6.2 6.2 0 00-.4 2.06c-.043.909-.053 1.2-.053 3.5s.01 2.593.05 3.5a6.2 6.2 0 00.4 2.059 4.181 4.181 0 00.981 1.506 4.211 4.211 0 001.5.979 6.2 6.2 0 002.06.394c.905.04 1.194.05 3.5.05s2.593-.01 3.5-.05a6.18 6.18 0 002.059-.394 4.345 4.345 0 002.485-2.485 6.171 6.171 0 00.394-2.059c.04-.906.05-1.194.05-3.5s-.001-2.594-.041-3.5zm-1.529 6.932a4.629 4.629 0 01-.292 1.576 2.815 2.815 0 01-1.612 1.612 4.664 4.664 0 01-1.575.292c-.9.039-1.164.049-3.43.049s-2.537-.01-3.429-.049a4.663 4.663 0 01-1.576-.292 2.614 2.614 0 01-.975-.634 2.634 2.634 0 01-.633-.975 4.663 4.663 0 01-.292-1.575c-.04-.9-.05-1.164-.05-3.43s.01-2.537.05-3.429a4.656 4.656 0 01.292-1.576 2.573 2.573 0 01.637-.975 2.626 2.626 0 01.975-.633 4.663 4.663 0 011.575-.292c.9-.04 1.164-.05 3.43-.05s2.537.01 3.429.05a4.66 4.66 0 011.576.292 2.61 2.61 0 01.975.633 2.633 2.633 0 01.633.975 4.651 4.651 0 01.292 1.576c.04.9.05 1.164.05 3.429s-.01 2.531-.05 3.426z"/><path data-name="Контур 422" d="M8.491 4.129a4.364 4.364 0 00-4.362 4.362 4.363 4.363 0 004.362 4.361 4.362 4.362 0 004.361-4.361 4.363 4.363 0 00-4.361-4.362zm0 7.191a2.829 2.829 0 01-2.829-2.829 2.83 2.83 0 012.829-2.83 2.829 2.829 0 012.829 2.83 2.829 2.829 0 01-2.829 2.829z"/><path data-name="Контур 423" d="M14.043 3.957a1.018 1.018 0 01-1.018 1.018 1.018 1.018 0 01-1.018-1.018 1.019 1.019 0 011.018-1.019 1.019 1.019 0 011.018 1.019z"/></g></svg>