<svg xmlns="http://www.w3.org/2000/svg" width="19.867" height="16.86"><path data-name="Контур 427" d="M19.526.513a1.635 1.635 0 00-1.907-.366L1.1 6.453c-.978.374-1.109.96-1.1 1.276s.173.894 1.192 1.218l3.339.955 1.822 5.213A1.771 1.771 0 008 16.404a1.924 1.924 0 001.3-.551l2.008-1.848 2.956 2.38.041.032a1.95 1.95 0 001.187.443 1.686 1.686 0 001.617-1.484l2.706-13.365a1.769 1.769 0 00-.289-1.498zm-9.392 12.543l-1.5 1.378.532-2.155zm1.465-6.242l-3.42 3.634a.738.738 0 00-.181.333l-.652 2.64L6.03 9.659zm4.045-2.116a.746.746 0 00.054-.962.748.748 0 00-.938-.217l-9.729 4.97-2.9-.829 16.02-6.115a.644.644 0 01.216-.05.717.717 0 01-.016.219l-2.707 13.365c-.036.178-.1.284-.15.284a.505.505 0 01-.264-.123l-5.41-4.356z" fill="#fff"/></svg>