<svg xmlns="http://www.w3.org/2000/svg" width="21.624" height="13.514"><path data-name="Контур 424" d="M10.943 13.514c3.128 0 2.012-1.98 2.254-2.55 0-.425-.007-.834.007-1.083a4.817 4.817 0 011.632 1.232c1.491 1.5 1.872 2.4 3.076 2.4h2.218a1.464 1.464 0 001.251-.535 1.4 1.4 0 00.161-1.3c-.5-1.553-3.38-4.235-3.559-4.518a2.39 2.39 0 01.093-.158c.569-.752 2.742-4.008 3.062-5.311v-.007a1.3 1.3 0 00-.15-1.2 1.373 1.373 0 00-1.17-.491h-2.217a1.633 1.633 0 00-1.591 1.056 15.64 15.64 0 01-2.819 4.585c-.03-1.249-.01-2.2.007-2.912.032-1.383.137-2.729-1.3-2.729H8.413a1.224 1.224 0 00-.828 2.148c.815 1.021.293 1.591.469 4.425A16.574 16.574 0 015.29 1.314 1.624 1.624 0 003.653-.007H1.435A1.266 1.266 0 00-.001 1.304c0 1.844 4.081 12.2 10.943 12.2zM3.654 1.352c.2 0 .215 0 .36.412.882 2.6 2.861 6.441 4.306 6.441 1.085 0 1.085-1.113 1.085-1.532V3.338a3.188 3.188 0 00-.726-1.987h3.161c0 .015-.018 3.689.009 4.579 0 1.264 1 1.989 2.57.4a19.227 19.227 0 002.843-4.769c.068-.162.126-.217.339-.217h2.226v.008a26.385 26.385 0 01-2.873 4.9c-.011.014-.021.03-.031.045a1.345 1.345 0 00.041 1.76c.052.064.188.211.386.417.617.636 2.73 2.811 2.918 3.676-.125.02-.26 0-2.355.01-.446 0-.794-.667-2.125-2.01-1.2-1.164-1.973-1.639-2.68-1.639-1.373 0-1.273 1.114-1.261 2.462.005 1.461 0 1 .006 1.091a2.69 2.69 0 01-.909.1c-5.717 0-9.44-9.074-9.583-10.808h2.294z" fill="#fff"/></svg>