<svg xmlns="http://www.w3.org/2000/svg" width="14.981" height="14.981"><g data-name="Сгруппировать 195" fill="#fff"><path data-name="Контур 425" d="M11.085 8.609c-.029-.014-1.121-.552-1.315-.622a.78.78 0 00-.255-.056.433.433 0 00-.368.218 10.04 10.04 0 01-.541.663c-.013.015-.032.034-.042.034s-.179-.07-.23-.092a5.746 5.746 0 01-2.183-1.939.147.147 0 01-.019-.043.362.362 0 01.064-.076c.06-.059.124-.137.187-.212l.088-.1a1.173 1.173 0 00.177-.282l.025-.049a.509.509 0 00-.015-.479c-.026-.052-.487-1.165-.536-1.282-.118-.282-.274-.414-.49-.414h-.084a2.611 2.611 0 00-.909.234 1.9 1.9 0 00-.7 1.617 3.486 3.486 0 00.756 1.919l.031.045a7.116 7.116 0 003.052 2.649 4.961 4.961 0 001.843.471 2.907 2.907 0 00.3-.017l.054-.006a1.938 1.938 0 001.351-.956 1.521 1.521 0 00.086-1 .692.692 0 00-.327-.225z"/><path data-name="Контур 426" d="M7.623 0A7.339 7.339 0 00.265 7.3a7.25 7.25 0 001.009 3.693L.01 14.721a.2.2 0 00.046.2.193.193 0 00.138.058.2.2 0 00.059-.009l3.888-1.235a7.4 7.4 0 003.482.868 7.338 7.338 0 007.358-7.3A7.339 7.339 0 007.623 0zm0 13.084a5.825 5.825 0 01-3.207-.956.194.194 0 00-.106-.032.2.2 0 00-.059.009l-1.948.619.629-1.854a.2.2 0 00-.027-.178 5.7 5.7 0 01-1.11-3.389 5.811 5.811 0 015.828-5.781 5.811 5.811 0 015.828 5.781 5.811 5.811 0 01-5.828 5.782z"/></g></svg>