<svg xmlns="http://www.w3.org/2000/svg" width="70.114" height="75.122"><g fill="#165425"><path data-name="Контур 47" d="M7.512 68.862h-2.5a1.252 1.252 0 00-1.252 1.252 1.251 1.251 0 001.252 1.252h2.5a1.251 1.251 0 001.252-1.252 1.252 1.252 0 00-1.252-1.252z"/><path data-name="Контур 48" d="M7.512 65.106h-2.5a1.252 1.252 0 00-1.252 1.252 1.251 1.251 0 001.252 1.252h2.5a1.251 1.251 0 001.252-1.252 1.252 1.252 0 00-1.252-1.252z"/><path data-name="Контур 49" d="M30.049 68.862h-2.5a1.253 1.253 0 00-1.253 1.252 1.252 1.252 0 001.253 1.252h2.5a1.252 1.252 0 001.252-1.252 1.253 1.253 0 00-1.252-1.252z"/><path data-name="Контур 50" d="M30.049 65.106h-2.5a1.253 1.253 0 00-1.253 1.252 1.252 1.252 0 001.253 1.252h2.5a1.252 1.252 0 001.252-1.252 1.253 1.253 0 00-1.252-1.252z"/><path data-name="Контур 51" d="M52.585 68.862h-2.5a1.253 1.253 0 00-1.252 1.252 1.252 1.252 0 001.252 1.252h2.5a1.251 1.251 0 001.252-1.252 1.252 1.252 0 00-1.252-1.252z"/><path data-name="Контур 52" d="M52.585 65.106h-2.5a1.253 1.253 0 00-1.252 1.252 1.252 1.252 0 001.252 1.252h2.5a1.251 1.251 0 001.252-1.252 1.252 1.252 0 00-1.252-1.252z"/><path data-name="Контур 53" d="M68.861 47.578H58.845V23.789a1.252 1.252 0 00-1.252-1.252H47.574V1.253A1.253 1.253 0 0046.322 0H23.785a1.253 1.253 0 00-1.252 1.253v21.284H12.517a1.253 1.253 0 00-1.252 1.252v23.789H1.249A1.251 1.251 0 00-.003 48.83v25.04a1.251 1.251 0 001.252 1.252h67.609a1.252 1.252 0 001.253-1.252V48.828a1.252 1.252 0 00-1.25-1.25zm-12.52 2.5h2.5v5.008h-2.5zm0-2.5H36.309V25.041h6.26v6.26a1.251 1.251 0 001.252 1.252h5.008a1.252 1.252 0 001.252-1.252v-6.26h6.26zm-22.536 2.5h2.5v5.008h-2.5zm13.772-25.041v5.008h-2.5v-5.008zM36.309 2.501v2.5h-2.5v-2.5zm-11.269 0h6.261v3.756a1.252 1.252 0 001.252 1.252h5.008a1.253 1.253 0 001.252-1.252V2.501h6.26v20.032H25.04zm0 22.536v5.008h-2.5v-5.008zm-11.268 0h6.26v6.26a1.252 1.252 0 001.252 1.252h5.008a1.252 1.252 0 001.253-1.252v-6.26h6.26v22.537H13.774zm0 25.041v5.008h-2.5v-5.008zm-11.268 0h6.26v6.26a1.253 1.253 0 001.252 1.252h5.008a1.252 1.252 0 001.252-1.252v-6.26h6.26v22.536H2.504zm22.536 0h6.261v6.26a1.252 1.252 0 001.252 1.252h5.008a1.253 1.253 0 001.252-1.252v-6.26h6.26v22.536H25.04zm42.569 22.536H47.574V50.078h6.26v6.26a1.253 1.253 0 001.252 1.252h5.008a1.252 1.252 0 001.252-1.252v-6.26h6.26z"/><path data-name="Контур 54" d="M16.274 46.328h2.5a1.252 1.252 0 001.252-1.252 1.251 1.251 0 00-1.252-1.252h-2.5a1.252 1.252 0 00-1.252 1.252 1.253 1.253 0 001.252 1.252z"/><path data-name="Контур 55" d="M16.274 42.57h2.5a1.252 1.252 0 001.252-1.253 1.252 1.252 0 00-1.252-1.252h-2.5a1.253 1.253 0 00-1.252 1.252 1.253 1.253 0 001.252 1.253z"/><path data-name="Контур 56" d="M41.317 43.822h-2.5a1.251 1.251 0 00-1.252 1.252 1.252 1.252 0 001.252 1.252h2.5a1.253 1.253 0 001.252-1.252 1.252 1.252 0 00-1.252-1.252z"/><path data-name="Контур 57" d="M41.317 40.065h-2.5a1.252 1.252 0 00-1.252 1.252 1.252 1.252 0 001.252 1.253h2.5a1.253 1.253 0 001.252-1.253 1.253 1.253 0 00-1.252-1.252z"/><path data-name="Контур 58" d="M27.545 17.528h2.5a1.253 1.253 0 001.252-1.252 1.252 1.252 0 00-1.252-1.252h-2.5a1.252 1.252 0 00-1.253 1.252 1.253 1.253 0 001.253 1.252z"/><path data-name="Контур 59" d="M27.545 21.285h2.5a1.253 1.253 0 001.252-1.252 1.252 1.252 0 00-1.252-1.252h-2.5a1.252 1.252 0 00-1.253 1.252 1.253 1.253 0 001.253 1.252z"/></g></svg>