<svg xmlns="http://www.w3.org/2000/svg" width="62.812" height="57.921"><g data-name="Сгруппировать 67"><g data-name="Сгруппировать 60"><g data-name="Сгруппировать 59"><path data-name="Контур 28" d="M31.718 47.468a1.234 1.234 0 00-.867-.36 1.23 1.23 0 00-.867.36 1.227 1.227 0 00-.36.867 1.225 1.225 0 00.36.867 1.227 1.227 0 00.867.36 1.231 1.231 0 00.867-.36 1.237 1.237 0 00.36-.867 1.236 1.236 0 00-.36-.867z" fill="#165425"/></g></g><g data-name="Сгруппировать 62"><g data-name="Сгруппировать 61"><path data-name="Контур 29" d="M45.882 0h-42.2a3.684 3.684 0 00-3.68 3.68v42.2a3.684 3.684 0 003.68 3.68h21.1a1.227 1.227 0 001.227-1.227 1.228 1.228 0 00-1.227-1.227h-21.1a1.228 1.228 0 01-1.227-1.226V3.68a1.229 1.229 0 011.227-1.227h42.2a1.228 1.228 0 011.226 1.227v11.409a1.227 1.227 0 001.227 1.227 1.227 1.227 0 001.227-1.227V3.68A3.685 3.685 0 0045.882 0z" fill="#165425"/></g></g><g data-name="Сгруппировать 64"><g data-name="Сгруппировать 63"><path data-name="Контур 30" d="M17.87 11.163a3.931 3.931 0 00-3.926 3.926 3.93 3.93 0 003.926 3.926 3.93 3.93 0 003.926-3.926 3.931 3.931 0 00-3.926-3.926zm0 5.4a1.473 1.473 0 01-1.472-1.472 1.473 1.473 0 011.472-1.472 1.474 1.474 0 011.472 1.472 1.473 1.473 0 01-1.472 1.47z" fill="#165425"/></g></g><g data-name="Сгруппировать 66"><g data-name="Сгруппировать 65"><path data-name="Контур 31" d="M62.694 20.614a3.407 3.407 0 00-1.6-2.082l-4.982-2.877a3.434 3.434 0 00-4.685 1.255l-7.756 13.434V7.115a1.227 1.227 0 00-1.226-1.227H7.113a1.228 1.228 0 00-1.227 1.227v29.443a1.227 1.227 0 001.227 1.227H35.74a1.226 1.226 0 001.226-1.227 1.227 1.227 0 00-1.226-1.227H10.075l8.906-8.906 6.616 6.616a1.227 1.227 0 001.735 0 1.227 1.227 0 000-1.735l-7.483-7.483a1.231 1.231 0 00-.868-.36 1.227 1.227 0 00-.867.36L8.34 33.596V8.342h32.878v17.49l-9.74-9.739a1.226 1.226 0 00-.867-.359 1.227 1.227 0 00-.868.359l-6.5 6.5a1.227 1.227 0 000 1.735 1.227 1.227 0 001.735 0l5.632-5.632 10.6 10.6.009.007v5.293l-5.265 9.118a1.242 1.242 0 00-.158.488L34.52 56.57a1.229 1.229 0 00.607 1.189 1.226 1.226 0 00.613.164 1.225 1.225 0 00.72-.233l10.073-7.289a1.217 1.217 0 00.343-.381l15.474-26.8a3.406 3.406 0 00.344-2.606zM37.243 54.093l.8-7.758 5.518 3.186zm8.123-6.364l-6.673-3.852 11.666-20.2 6.672 3.852zm14.861-25.74L58.258 25.4l-6.673-3.853 1.969-3.41a.977.977 0 011.333-.357l4.982 2.877a.965.965 0 01.455.592.967.967 0 01-.093.74z" fill="#165425"/></g></g></g></svg>